<?xml version="1.0" encoding="UTF-8" standalone="no"?>
<!-- Generator: Adobe Illustrator 19.0.0, SVG Export Plug-In . SVG Version: 6.00 Build 0)  -->

<svg
   version="1.1"
   id="Capa_1"
   x="0px"
   y="0px"
   viewBox="0 0 55.753 55.753"
   style="enable-background:new 0 0 55.753 55.753;"
   xml:space="preserve"
   sodipodi:docname="back.svg"
   inkscape:version="1.1 (c68e22c387, 2021-05-23)"
   xmlns:inkscape="http://www.inkscape.org/namespaces/inkscape"
   xmlns:sodipodi="http://sodipodi.sourceforge.net/DTD/sodipodi-0.dtd"
   xmlns="http://www.w3.org/2000/svg"
   xmlns:svg="http://www.w3.org/2000/svg"><defs
   id="defs85" /><sodipodi:namedview
   id="namedview83"
   pagecolor="#ffffff"
   bordercolor="#666666"
   borderopacity="1.0"
   inkscape:pageshadow="2"
   inkscape:pageopacity="0.0"
   inkscape:pagecheckerboard="0"
   showgrid="false"
   inkscape:zoom="14.51043"
   inkscape:cx="27.8765"
   inkscape:cy="27.8765"
   inkscape:window-width="1920"
   inkscape:window-height="1017"
   inkscape:window-x="1358"
   inkscape:window-y="-8"
   inkscape:window-maximized="1"
   inkscape:current-layer="Capa_1" />
<g
   id="g50"
   transform="matrix(-1,0,0,1,55.752822,0)">
	<path
   d="m 12.745,23.915 c 0.283,-0.282 0.59,-0.52 0.913,-0.727 L 35.266,1.581 c 2.108,-2.107 5.528,-2.108 7.637,0.001 2.109,2.108 2.109,5.527 0,7.637 L 24.294,27.828 42.999,46.534 c 2.109,2.108 2.109,5.526 0,7.637 -1.055,1.056 -2.438,1.582 -3.818,1.582 -1.38,0 -2.764,-0.526 -3.818,-1.582 L 13.658,32.464 c -0.323,-0.207 -0.632,-0.445 -0.913,-0.727 -1.078,-1.078 -1.598,-2.498 -1.572,-3.911 -0.026,-1.413 0.494,-2.832 1.572,-3.911 z"
   id="path48" />
</g>
<g
   id="g52"
   transform="matrix(-1,0,0,1,55.752822,0)">
</g>
<g
   id="g54"
   transform="matrix(-1,0,0,1,55.752822,0)">
</g>
<g
   id="g56"
   transform="matrix(-1,0,0,1,55.752822,0)">
</g>
<g
   id="g58"
   transform="matrix(-1,0,0,1,55.752822,0)">
</g>
<g
   id="g60"
   transform="matrix(-1,0,0,1,55.752822,0)">
</g>
<g
   id="g62"
   transform="matrix(-1,0,0,1,55.752822,0)">
</g>
<g
   id="g64"
   transform="matrix(-1,0,0,1,55.752822,0)">
</g>
<g
   id="g66"
   transform="matrix(-1,0,0,1,55.752822,0)">
</g>
<g
   id="g68"
   transform="matrix(-1,0,0,1,55.752822,0)">
</g>
<g
   id="g70"
   transform="matrix(-1,0,0,1,55.752822,0)">
</g>
<g
   id="g72"
   transform="matrix(-1,0,0,1,55.752822,0)">
</g>
<g
   id="g74"
   transform="matrix(-1,0,0,1,55.752822,0)">
</g>
<g
   id="g76"
   transform="matrix(-1,0,0,1,55.752822,0)">
</g>
<g
   id="g78"
   transform="matrix(-1,0,0,1,55.752822,0)">
</g>
<g
   id="g80"
   transform="matrix(-1,0,0,1,55.752822,0)">
</g>
</svg>
