<?xml version="1.0" encoding="UTF-8" standalone="no"?>
<!-- Created with Inkscape (http://www.inkscape.org/) -->

<svg
   width="107.44832mm"
   height="107.44832mm"
   viewBox="0 0 107.44832 107.44832"
   version="1.1"
   id="svg5"
   inkscape:version="1.1 (c68e22c387, 2021-05-23)"
   sodipodi:docname="noExpensesIcon.svg"
   xmlns:inkscape="http://www.inkscape.org/namespaces/inkscape"
   xmlns:sodipodi="http://sodipodi.sourceforge.net/DTD/sodipodi-0.dtd"
   xmlns="http://www.w3.org/2000/svg"
   xmlns:svg="http://www.w3.org/2000/svg">
  <sodipodi:namedview
     id="namedview7"
     pagecolor="#ffffff"
     bordercolor="#666666"
     borderopacity="1.0"
     inkscape:pageshadow="2"
     inkscape:pageopacity="0.0"
     inkscape:pagecheckerboard="0"
     inkscape:document-units="mm"
     showgrid="false"
     fit-margin-top="0"
     fit-margin-left="0"
     fit-margin-right="0"
     fit-margin-bottom="0"
     inkscape:zoom="1.0482005"
     inkscape:cx="117.82097"
     inkscape:cy="302.90007"
     inkscape:window-width="1920"
     inkscape:window-height="1017"
     inkscape:window-x="1912"
     inkscape:window-y="-8"
     inkscape:window-maximized="1"
     inkscape:current-layer="layer1" />
  <defs
     id="defs2" />
  <g
     inkscape:label="Layer 1"
     inkscape:groupmode="layer"
     id="layer1"
     transform="translate(-44.978367,-59.614182)">
    <rect
       style="fill:#011627;fill-opacity:1;stroke:none;stroke-width:0.351999"
       id="rect848"
       width="107.44832"
       height="107.44832"
       x="44.978367"
       y="59.614182"
       ry="6.908" />
    <g
       id="g1148"
       transform="matrix(0.12785761,0,0,0.12785761,65.970978,80.606793)"
       style="fill:#ffffff">
      <g
         id="g1084"
         style="fill:#ffffff">
	<g
   id="g1082"
   style="fill:#ffffff">
		<path
   d="M 336,32 H 301.248 C 294.656,13.376 276.864,0 256,0 235.136,0 217.344,13.376 210.72,32 H 176 c -8.832,0 -16,7.168 -16,16 v 64 c 0,8.832 7.168,16 16,16 h 160 c 8.832,0 16,-7.168 16,-16 V 48 c 0,-8.832 -7.168,-16 -16,-16 z"
   id="path1080"
   style="fill:#ffffff" />

	</g>

</g>
      <g
         id="g1090"
         style="fill:#ffffff">
	<g
   id="g1088"
   style="fill:#ffffff">
		<path
   d="m 416,64 h -32 v 48 c 0,26.464 -21.536,48 -48,48 H 176 c -26.464,0 -48,-21.536 -48,-48 V 64 H 96 C 78.368,64 64,78.368 64,96 v 384 c 0,17.952 14.048,32 32,32 h 320 c 17.952,0 32,-14.048 32,-32 V 96 C 448,78.048 433.952,64 416,64 Z m -164.672,283.328 -64,64 C 184.192,414.432 180.096,416 176,416 c -4.096,0 -8.192,-1.568 -11.328,-4.672 l -32,-32 c -6.24,-6.24 -6.24,-16.384 0,-22.624 6.24,-6.24 16.384,-6.24 22.624,0 L 176,377.376 228.672,324.704 c 6.24,-6.24 16.384,-6.24 22.624,0 6.24,6.24 6.272,16.352 0.032,22.624 z m 0,-128 -64,64 C 184.192,286.432 180.096,288 176,288 c -4.096,0 -8.192,-1.568 -11.328,-4.672 l -32,-32 c -6.24,-6.24 -6.24,-16.384 0,-22.624 6.24,-6.24 16.384,-6.24 22.624,0 L 176,249.376 228.672,196.704 c 6.24,-6.24 16.384,-6.24 22.624,0 6.24,6.24 6.272,16.352 0.032,22.624 z M 368,384 h -64 c -8.832,0 -16,-7.168 -16,-16 0,-8.832 7.168,-16 16,-16 h 64 c 8.832,0 16,7.168 16,16 0,8.832 -7.168,16 -16,16 z m 0,-128 h -64 c -8.832,0 -16,-7.168 -16,-16 0,-8.832 7.168,-16 16,-16 h 64 c 8.832,0 16,7.168 16,16 0,8.832 -7.168,16 -16,16 z"
   id="path1086"
   style="fill:#ffffff" />

	</g>

</g>
      <g
         id="g1092"
         style="fill:#ffffff">
</g>
      <g
         id="g1094"
         style="fill:#ffffff">
</g>
      <g
         id="g1096"
         style="fill:#ffffff">
</g>
      <g
         id="g1098"
         style="fill:#ffffff">
</g>
      <g
         id="g1100"
         style="fill:#ffffff">
</g>
      <g
         id="g1102"
         style="fill:#ffffff">
</g>
      <g
         id="g1104"
         style="fill:#ffffff">
</g>
      <g
         id="g1106"
         style="fill:#ffffff">
</g>
      <g
         id="g1108"
         style="fill:#ffffff">
</g>
      <g
         id="g1110"
         style="fill:#ffffff">
</g>
      <g
         id="g1112"
         style="fill:#ffffff">
</g>
      <g
         id="g1114"
         style="fill:#ffffff">
</g>
      <g
         id="g1116"
         style="fill:#ffffff">
</g>
      <g
         id="g1118"
         style="fill:#ffffff">
</g>
      <g
         id="g1120"
         style="fill:#ffffff">
</g>
    </g>
  </g>
</svg>
