<?xml version="1.0" encoding="UTF-8" standalone="no"?>
<!-- Generator: Adobe Illustrator 16.0.0, SVG Export Plug-In . SVG Version: 6.00 Build 0)  -->

<svg
   version="1.1"
   id="Capa_1"
   x="0px"
   y="0px"
   width="792.082px"
   height="792.082px"
   viewBox="0 0 792.082 792.082"
   style="enable-background:new 0 0 792.082 792.082;"
   xml:space="preserve"
   sodipodi:docname="right-arrow.svg"
   inkscape:version="1.1 (c68e22c387, 2021-05-23)"
   xmlns:inkscape="http://www.inkscape.org/namespaces/inkscape"
   xmlns:sodipodi="http://sodipodi.sourceforge.net/DTD/sodipodi-0.dtd"
   xmlns="http://www.w3.org/2000/svg"
   xmlns:svg="http://www.w3.org/2000/svg"><defs
   id="defs42" /><sodipodi:namedview
   id="namedview40"
   pagecolor="#ffffff"
   bordercolor="#666666"
   borderopacity="1.0"
   inkscape:pageshadow="2"
   inkscape:pageopacity="0.0"
   inkscape:pagecheckerboard="0"
   showgrid="false"
   inkscape:zoom="1.0503963"
   inkscape:cx="396.04099"
   inkscape:cy="624.52617"
   inkscape:window-width="1335"
   inkscape:window-height="1040"
   inkscape:window-x="15"
   inkscape:window-y="97"
   inkscape:window-maximized="0"
   inkscape:current-layer="Capa_1" />
<g
   id="g7"
   transform="matrix(-1,0,0,1,792.08045,0)">
	<g
   id="_x37__34_">
		<g
   id="g4">
			<path
   d="M 317.896,396.024 622.645,119.557 c 27.36,-27.36 27.36,-71.677 0,-99.037 -27.36,-27.36 -71.677,-27.36 -99.036,0 L 169.11,342.161 c -14.783,14.783 -21.302,34.538 -20.084,53.897 -1.218,19.359 5.301,39.114 20.084,53.897 l 354.531,321.606 c 27.36,27.36 71.677,27.36 99.037,0 27.36,-27.36 27.36,-71.677 0,-99.036 z"
   id="path2" />
		</g>
	</g>
</g>
<g
   id="g9"
   transform="matrix(-1,0,0,1,792.08045,0)">
</g>
<g
   id="g11"
   transform="matrix(-1,0,0,1,792.08045,0)">
</g>
<g
   id="g13"
   transform="matrix(-1,0,0,1,792.08045,0)">
</g>
<g
   id="g15"
   transform="matrix(-1,0,0,1,792.08045,0)">
</g>
<g
   id="g17"
   transform="matrix(-1,0,0,1,792.08045,0)">
</g>
<g
   id="g19"
   transform="matrix(-1,0,0,1,792.08045,0)">
</g>
<g
   id="g21"
   transform="matrix(-1,0,0,1,792.08045,0)">
</g>
<g
   id="g23"
   transform="matrix(-1,0,0,1,792.08045,0)">
</g>
<g
   id="g25"
   transform="matrix(-1,0,0,1,792.08045,0)">
</g>
<g
   id="g27"
   transform="matrix(-1,0,0,1,792.08045,0)">
</g>
<g
   id="g29"
   transform="matrix(-1,0,0,1,792.08045,0)">
</g>
<g
   id="g31"
   transform="matrix(-1,0,0,1,792.08045,0)">
</g>
<g
   id="g33"
   transform="matrix(-1,0,0,1,792.08045,0)">
</g>
<g
   id="g35"
   transform="matrix(-1,0,0,1,792.08045,0)">
</g>
<g
   id="g37"
   transform="matrix(-1,0,0,1,792.08045,0)">
</g>
</svg>
