<svg xmlns="http://www.w3.org/2000/svg" viewBox="0 0 330 330" style="enable-background:new 0 0 330 330" xml:space="preserve"><path d="m7.105 221.52 30 51.961a15.001 15.001 0 0 0 17.797 6.709l44.144-14.934a119.815 119.815 0 0 0 12.109 7.006l9.136 45.68A15 15 0 0 0 135 330h60a15 15 0 0 0 14.709-12.058l9.136-45.68a119.99 119.99 0 0 0 12.108-7.006l44.145 14.934a15.002 15.002 0 0 0 17.797-6.709l30-51.962a15 15 0 0 0-3.088-18.767l-35.01-30.767a120.908 120.908 0 0 0 0-13.971l35.008-30.766a15 15 0 0 0 3.088-18.767l-30-51.962a15 15 0 0 0-17.797-6.709l-44.143 14.934a119.69 119.69 0 0 0-12.108-7.006l-9.136-45.68A15 15 0 0 0 195 0h-60a15 15 0 0 0-14.709 12.058l-9.136 45.68a119.99 119.99 0 0 0-12.108 7.006L54.902 49.81a15.004 15.004 0 0 0-17.797 6.709l-30 51.962a15 15 0 0 0 3.088 18.767l35.008 30.766a121.658 121.658 0 0 0 0 13.972l-35.008 30.766a15 15 0 0 0-3.088 18.768zM165 105c33.084 0 60 26.916 60 60s-26.916 60-60 60-60-26.916-60-60 26.916-60 60-60z"/></svg>